<svg xmlns="http://www.w3.org/2000/svg" viewBox="0 0 144 144">
  <defs>
    <linearGradient id="bg" x1="0" y1="0" x2="1" y2="1">
      <stop offset="0%" stop-color="#050816"/>
      <stop offset="100%" stop-color="#0a1026"/>
    </linearGradient>
    <linearGradient id="blue" x1="0" y1="0" x2="1" y2="1">
      <stop offset="0%" stop-color="#1f8fff"/>
      <stop offset="100%" stop-color="#19e5ff"/>
    </linearGradient>
    <linearGradient id="green" x1="0" y1="0" x2="1" y2="1">
      <stop offset="0%" stop-color="#47ff7a"/>
      <stop offset="100%" stop-color="#12b85d"/>
    </linearGradient>
    <radialGradient id="glow" cx="50%" cy="50%" r="50%">
      <stop offset="0%" stop-color="#31ff7b" stop-opacity="0.35"/>
      <stop offset="100%" stop-color="#31ff7b" stop-opacity="0"/>
    </radialGradient>
    <filter id="soft" x="-20%" y="-20%" width="140%" height="140%">
      <feGaussianBlur stdDeviation="2.2"/>
    </filter>
  </defs>
  <rect width="144" height="144" rx="26" fill="url(#bg)"/>
  <rect x="27" y="25" width="90" height="90" rx="14" fill="none" stroke="#1773d8" stroke-width="3.2" opacity="0.9"/>
  <path d="M72 15l4 7h-8zM72 129l4-7h-8zM15 72l7-4v8zM129 72l-7-4v8z" fill="#19e5ff"/>
  <g stroke="#2b8fff" stroke-width="2" fill="#16273d">
    <rect x="35" y="33" width="22" height="22" rx="5"/>
    <rect x="61" y="33" width="22" height="22" rx="5"/>
    <rect x="87" y="33" width="22" height="22" rx="5" stroke="#4fff71"/>
    <rect x="35" y="59" width="22" height="22" rx="5"/>
    <rect x="87" y="59" width="22" height="22" rx="5"/>
    <rect x="35" y="85" width="22" height="22" rx="5"/>
    <rect x="61" y="85" width="22" height="22" rx="5"/>
    <rect x="87" y="85" width="22" height="22" rx="5"/>
  </g>
  <circle cx="72" cy="72" r="30" fill="#071426" stroke="url(#blue)" stroke-width="3.4"/>
  <circle cx="72" cy="72" r="22" fill="none" stroke="#1db7ff" stroke-opacity="0.45" stroke-width="2.3"/>
  <circle cx="72" cy="72" r="12" fill="none" stroke="#1db7ff" stroke-opacity="0.28" stroke-width="2"/>
  <path d="M42 72h60M72 42v60M50 50l44 44M50 94l44-44" stroke="#1a91ff" stroke-opacity="0.18" stroke-width="1.5"/>
  <circle cx="72" cy="72" r="22" fill="url(#glow)" filter="url(#soft)"/>
  <path d="M72 72L97 47" stroke="url(#green)" stroke-width="3.2" stroke-linecap="round"/>
  <path d="M72 72L55 87" stroke="url(#blue)" stroke-width="3" stroke-linecap="round"/>
  <path d="M72 72l21-17-9 21z" fill="#ffffff"/>
  <path d="M72 72l-13 14 5-18z" fill="#1ed8ff"/>
  <circle cx="72" cy="72" r="5.8" fill="#ffffff"/>
  <circle cx="72" cy="72" r="2.8" fill="#0f3a7b"/>
  <circle cx="54" cy="62" r="1.7" fill="#20d8ff"/>
  <circle cx="88" cy="84" r="1.7" fill="#20d8ff"/>
  <circle cx="80" cy="92" r="1.2" fill="#20d8ff" opacity="0.8"/>
</svg>
